<svg id="to-do" xmlns="http://www.w3.org/2000/svg" xmlns:xlink="http://www.w3.org/1999/xlink" width="1000" height="1000" viewBox="0 0 1000 1000"><defs><radialGradient id="Unbenannter_Verlauf_24" cx="233.03662" cy="-12.64408" r="1153.18312" gradientTransform="matrix(0.35436, 0.93511, -0.96528, 0.36579, 138.25306, -225.93378)" gradientUnits="userSpaceOnUse"><stop offset="0.06002" stop-color="#93e874"/><stop offset="0.17519" stop-color="#8de777"/><stop offset="0.33635" stop-color="#7ae57e"/><stop offset="0.52389" stop-color="#5de28b"/><stop offset="0.5494" stop-color="#58e18d"/><stop offset="0.66446" stop-color="#34de9b"/><stop offset="0.77567" stop-color="#1cd7b7"/><stop offset="1" stop-color="#03bae6"/></radialGradient></defs><path d="M803,1000H197C88.1999,1000,0,911.8001,0,803V197C0,88.1999,88.1999,0,197,0H803c108.8001,0,197,88.1999,197,197V803C1000,911.8001,911.8001,1000,803,1000Z" fill="url(#Unbenannter_Verlauf_24)"/><path d="M499.9956,166.265c-184.01729.00092-333.7296,149.71323-333.73053,333.73052C166.26415,684.3879,315.60664,833.73039,499.999,833.72946c184.01729-.00092,333.7296-149.71323,333.73053-333.73052C833.73045,315.60657,684.388,166.26408,499.9956,166.265Zm.33072,609.731c-152.44429.17874-276.50651-123.88347-276.32776-276.32777.17785-151.68441,123.98531-275.49187,275.66972-275.66972C652.11257,223.81975,776.17479,347.882,775.996,500.32626,775.81819,652.01066,652.01073,775.81813,500.32632,775.996ZM647.56061,367.82063a22.45883,22.45883,0,0,1,2.115,31.69051L456.24344,634.2091a38.50566,38.50566,0,0,1-28.75472,13.14937H427.267a38.50276,38.50276,0,0,1-28.68218-12.81569L320.89685,547.7874A38.50014,38.50014,0,1,1,378.25915,496.42l48.671,54.35087L603.65027,381.63011s10.04467-9.6913,14.60638-13.83124a32.04259,32.04259,0,0,1,3.71921-2.77517A22.46526,22.46526,0,0,1,647.56061,367.82063Z" fill="#fff"/></svg>